<svg version="1.1" id="Layer_1" xmlns="http://www.w3.org/2000/svg" xmlns:xlink="http://www.w3.org/1999/xlink" x="0px" y="0px"
	 width="100%" viewBox="0 0 500 500" enable-background="new 0 0 500 500" xml:space="preserve">
<path fill="#171616" opacity="1.000000" stroke="none" 
	d="
M347.000000,501.000000 
	C231.333359,501.000000 116.166725,501.000000 1.000062,501.000000 
	C1.000041,334.333405 1.000041,167.666794 1.000021,1.000151 
	C167.666550,1.000101 334.333099,1.000101 500.999756,1.000050 
	C500.999817,167.666519 500.999817,334.333038 500.999908,500.999786 
	C449.833344,501.000000 398.666656,501.000000 347.000000,501.000000 
M236.936798,173.334244 
	C230.532242,157.541290 224.127686,141.748337 217.784256,126.106110 
	C183.694412,126.106110 150.043762,126.106110 116.173286,126.106110 
	C86.716896,201.353302 57.268192,276.580841 27.726067,352.047028 
	C89.221367,352.047028 150.174515,352.047028 211.527939,352.047028 
	C202.405731,326.716919 193.477417,301.925262 184.499542,276.995911 
	C170.597931,276.995911 156.968277,276.995911 142.785248,276.995911 
	C150.815063,255.413483 158.693497,234.237930 166.967941,211.997971 
	C167.951660,214.521927 168.500854,215.844147 168.986374,217.189362 
	C184.714142,260.765808 200.481186,304.328247 216.074280,347.952881 
	C217.355484,351.537231 219.027161,352.635101 222.813934,352.608734 
	C249.475235,352.422882 276.138458,352.510071 302.801056,352.510040 
	C304.394226,352.510040 305.987396,352.510071 308.099091,352.510071 
	C307.387177,350.650757 306.935883,349.448486 306.467651,348.252808 
	C300.297852,332.496979 294.125702,316.742096 288.893188,300.892761 
	C302.222961,300.863312 315.553833,300.931885 328.882141,300.776428 
	C341.771301,300.626129 354.050995,297.477203 366.333374,292.042267 
	C366.333374,323.272919 366.333374,353.868195 366.333374,384.501251 
	C391.754578,384.501251 416.788635,384.501251 441.742157,384.501251 
	C441.742157,323.528839 441.742157,262.937134 441.742157,201.784271 
	C432.127533,201.784271 422.743164,201.784271 413.370544,201.784271 
	C411.694275,180.183243 404.529602,161.434692 390.224548,145.642929 
	C372.225006,125.772659 349.229736,118.127312 323.098297,118.120331 
	C296.271454,118.113159 269.444580,118.118507 242.617737,118.118378 
	C241.162750,118.118370 239.707748,118.118378 237.778488,118.118378 
	C237.778488,120.209808 237.778488,121.831032 237.778488,123.452255 
	C237.778488,138.781891 237.801407,154.111603 237.743332,169.441010 
	C237.737473,170.988266 237.242203,172.533676 236.936798,173.334244 
z"/>
<path fill="#FEFEFE" opacity="1.000000" stroke="none" 
	d="
M287.954102,300.986969 
	C294.125702,316.742096 300.297852,332.496979 306.467651,348.252808 
	C306.935883,349.448486 307.387177,350.650757 308.099091,352.510071 
	C305.987396,352.510071 304.394226,352.510040 302.801056,352.510040 
	C276.138458,352.510071 249.475235,352.422882 222.813934,352.608734 
	C219.027161,352.635101 217.355484,351.537231 216.074280,347.952881 
	C200.481186,304.328247 184.714142,260.765808 168.986374,217.189362 
	C168.500854,215.844147 167.951660,214.521927 166.967941,211.997971 
	C158.693497,234.237930 150.815063,255.413483 142.785248,276.995911 
	C156.968277,276.995911 170.597931,276.995911 184.499542,276.995911 
	C193.477417,301.925262 202.405731,326.716919 211.527939,352.047028 
	C150.174515,352.047028 89.221367,352.047028 27.726067,352.047028 
	C57.268192,276.580841 86.716896,201.353302 116.173286,126.106110 
	C150.043762,126.106110 183.694412,126.106110 217.784256,126.106110 
	C224.127686,141.748337 230.532242,157.541290 236.953369,174.100311 
	C237.647430,178.866074 238.895111,182.863205 238.912994,186.865829 
	C239.068130,221.604919 239.002289,256.345001 239.002518,291.084778 
	C239.002579,299.995819 239.003113,299.996613 248.194443,299.997375 
	C258.832458,299.998260 269.471100,299.934082 280.108032,300.042755 
	C282.726318,300.069458 285.338898,300.657166 287.954102,300.986969 
z"/>
<path fill="#F9F3F3" opacity="1.000000" stroke="none" 
	d="
M288.423645,300.939880 
	C285.338898,300.657166 282.726318,300.069458 280.108032,300.042755 
	C269.471100,299.934082 258.832458,299.998260 248.194443,299.997375 
	C239.003113,299.996613 239.002579,299.995819 239.002518,291.084778 
	C239.002289,256.345001 239.068130,221.604919 238.912994,186.865829 
	C238.895111,182.863205 237.647430,178.866074 236.972000,174.473175 
	C237.242203,172.533676 237.737473,170.988266 237.743332,169.441010 
	C237.801407,154.111603 237.778488,138.781891 237.778488,123.452255 
	C237.778488,121.831032 237.778488,120.209808 237.778488,118.118378 
	C239.707748,118.118378 241.162750,118.118370 242.617737,118.118378 
	C269.444580,118.118507 296.271454,118.113159 323.098297,118.120331 
	C349.229736,118.127312 372.225006,125.772659 390.224548,145.642929 
	C404.529602,161.434692 411.694275,180.183243 413.370544,201.784271 
	C422.743164,201.784271 432.127533,201.784271 441.742157,201.784271 
	C441.742157,262.937134 441.742157,323.528839 441.742157,384.501251 
	C416.788635,384.501251 391.754578,384.501251 366.333374,384.501251 
	C366.333374,353.868195 366.333374,323.272919 366.333374,292.042267 
	C354.050995,297.477203 341.771301,300.626129 328.882141,300.776428 
	C315.553833,300.931885 302.222961,300.863312 288.423645,300.939880 
M372.608765,201.988556 
	C383.079315,201.988556 393.549866,201.988556 404.092651,201.988556 
	C404.092651,200.929657 404.148804,200.279251 404.084686,199.640915 
	C400.349945,162.449371 374.965179,129.204376 330.295471,127.429283 
	C302.843597,126.338402 275.317017,127.125893 247.823944,127.092056 
	C247.540176,127.091705 247.256042,127.391121 247.015228,127.526367 
	C247.015228,182.272720 247.015228,236.989120 247.015228,291.648224 
	C275.790436,291.648224 304.282013,292.306549 332.713501,291.287628 
	C342.536469,290.935608 352.225464,286.467590 361.943024,283.762451 
	C365.200287,282.855713 366.266479,280.667694 366.236511,277.093201 
	C366.042419,253.932465 366.137085,230.769318 366.137085,207.606964 
	C366.137085,205.836578 366.137085,204.066208 366.137085,201.988556 
	C368.355011,201.988556 369.998169,201.988556 372.608765,201.988556 
M375.089691,218.568695 
	C375.089691,270.971313 375.089691,323.373962 375.089691,375.640625 
	C394.801544,375.640625 413.863647,375.640625 432.726196,375.640625 
	C432.726196,320.557007 432.726196,265.821655 432.726196,211.255676 
	C413.367096,211.255676 394.319946,211.255676 375.089691,211.255676 
	C375.089691,213.617920 375.089691,215.602768 375.089691,218.568695 
z"/>
<path fill="#181717" opacity="1.000000" stroke="none" 
	d="
M372.125061,201.988556 
	C369.998169,201.988556 368.355011,201.988556 366.137085,201.988556 
	C366.137085,204.066208 366.137085,205.836578 366.137085,207.606964 
	C366.137085,230.769318 366.042419,253.932465 366.236511,277.093201 
	C366.266479,280.667694 365.200287,282.855713 361.943024,283.762451 
	C352.225464,286.467590 342.536469,290.935608 332.713501,291.287628 
	C304.282013,292.306549 275.790436,291.648224 247.015228,291.648224 
	C247.015228,236.989120 247.015228,182.272720 247.015228,127.526367 
	C247.256042,127.391121 247.540176,127.091705 247.823944,127.092056 
	C275.317017,127.125893 302.843597,126.338402 330.295471,127.429283 
	C374.965179,129.204376 400.349945,162.449371 404.084686,199.640915 
	C404.148804,200.279251 404.092651,200.929657 404.092651,201.988556 
	C393.549866,201.988556 383.079315,201.988556 372.125061,201.988556 
M327.960602,227.962051 
	C336.158844,226.087662 340.323547,221.372208 341.689941,212.417053 
	C342.911987,204.407974 339.472412,195.675247 333.538055,192.291183 
	C331.846344,191.326477 329.828186,190.477982 327.930908,190.412613 
	C321.329681,190.185120 314.715759,190.324692 307.918579,190.324692 
	C307.918579,202.948929 307.918579,215.370361 307.918579,228.021378 
	C314.447296,228.021378 320.755951,228.021378 327.960602,227.962051 
z"/>
<path fill="#181717" opacity="1.000000" stroke="none" 
	d="
M375.089691,218.078156 
	C375.089691,215.602768 375.089691,213.617920 375.089691,211.255676 
	C394.319946,211.255676 413.367096,211.255676 432.726196,211.255676 
	C432.726196,265.821655 432.726196,320.557007 432.726196,375.640625 
	C413.863647,375.640625 394.801544,375.640625 375.089691,375.640625 
	C375.089691,323.373962 375.089691,270.971313 375.089691,218.078156 
z"/>
<path fill="#F9F3F3" opacity="1.000000" stroke="none" 
	d="
M327.512573,227.991714 
	C320.755951,228.021378 314.447296,228.021378 307.918579,228.021378 
	C307.918579,215.370361 307.918579,202.948929 307.918579,190.324692 
	C314.715759,190.324692 321.329681,190.185120 327.930908,190.412613 
	C329.828186,190.477982 331.846344,191.326477 333.538055,192.291183 
	C339.472412,195.675247 342.911987,204.407974 341.689941,212.417053 
	C340.323547,221.372208 336.158844,226.087662 327.512573,227.991714 
M327.753296,218.934891 
	C332.605835,215.743378 334.357483,209.563110 332.067474,203.713272 
	C330.269592,199.120438 326.142303,197.980194 316.837738,199.533432 
	C316.837738,205.911148 316.837738,212.297180 316.837738,219.038147 
	C320.327972,219.038147 323.603729,219.038147 327.753296,218.934891 
z"/>
<path fill="#1A1919" opacity="1.000000" stroke="none" 
	d="
M327.316406,218.986511 
	C323.603729,219.038147 320.327972,219.038147 316.837738,219.038147 
	C316.837738,212.297180 316.837738,205.911148 316.837738,199.533432 
	C326.142303,197.980194 330.269592,199.120438 332.067474,203.713272 
	C334.357483,209.563110 332.605835,215.743378 327.316406,218.986511 
z"/>
</svg>